<?xml version="1.0" encoding="utf-8"?>
<!-- Generator: Adobe Illustrator 15.0.2, SVG Export Plug-In . SVG Version: 6.00 Build 0)  -->
<!DOCTYPE svg PUBLIC "-//W3C//DTD SVG 1.1//EN" "http://www.w3.org/Graphics/SVG/1.1/DTD/svg11.dtd">
<svg version="1.1" id="Calque_1" xmlns="http://www.w3.org/2000/svg" xmlns:xlink="http://www.w3.org/1999/xlink" x="0px" y="0px"
	 width="512px" height="512px" viewBox="0 0 512 512" enable-background="new 0 0 512 512" xml:space="preserve">
<path fill="#4785BA" d="M255.976-0.024C114.834-0.024,0,114.834,0,256.008c0,141.166,114.836,256.017,255.976,256.017
	c141.169,0,256.026-114.851,256.026-256.017C512.002,114.834,397.146-0.024,255.976-0.024z"/>
<g>
	<path fill="#FFFFFF" d="M129.908,244.65c7.106-0.185,12.896-2.098,17.372-5.744c4.476-3.646,7.452-8.652,8.928-15.018
		c1.476-6.366,2.26-17.255,2.352-32.666c0.092-15.41,0.37-25.561,0.83-30.45c0.83-7.75,2.376-13.98,4.638-18.687
		c2.26-4.706,5.05-8.466,8.374-11.279c3.322-2.816,7.566-4.96,12.734-6.437c3.506-0.922,9.228-1.384,17.164-1.384h7.75v21.729h-4.29
		c-9.596,0-15.964,1.73-19.1,5.19c-3.138,3.46-4.708,11.188-4.708,23.184c0,24.177-0.506,39.448-1.522,45.814
		c-1.66,9.874-4.498,17.486-8.512,22.838c-4.014,5.353-10.312,10.104-18.892,14.256c10.15,4.244,17.508,10.729,22.076,19.448
		s6.85,22.998,6.85,42.838c0,17.992,0.184,28.698,0.554,32.112c0.738,6.273,2.606,10.658,5.606,13.147
		c2.998,2.492,8.88,3.738,17.648,3.738h4.29v21.73h-7.75c-9.042,0-15.594-0.738-19.654-2.215
		c-5.906-2.121-10.796-5.558-14.672-10.312c-3.876-4.752-6.39-10.772-7.544-18.063c-1.154-7.29-1.776-19.239-1.868-35.846
		c-0.092-16.612-0.876-28.1-2.352-34.464c-1.476-6.37-4.452-11.396-8.928-15.088c-4.476-3.692-10.266-5.628-17.372-5.813V244.65
		H129.908z"/>
	<path fill="#FFFFFF" d="M382.092,244.65v22.562c-7.104,0.185-12.892,2.122-17.372,5.813c-4.474,3.691-7.45,8.696-8.926,15.018
		c-1.476,6.32-2.262,17.187-2.354,32.597c-0.093,15.407-0.37,25.56-0.83,30.449c-0.83,7.845-2.376,14.095-4.637,18.757
		c-2.26,4.659-5.052,8.396-8.376,11.212c-3.321,2.81-7.563,4.958-12.733,6.436c-3.506,1.014-9.227,1.522-17.16,1.522h-7.752v-21.73
		h4.29c9.598,0,15.962-1.729,19.1-5.189c3.141-3.463,4.708-11.236,4.708-23.324c0-23.068,0.414-37.696,1.246-43.876
		c1.477-10.242,4.428-18.433,8.856-24.568c4.43-6.138,10.706-10.91,18.825-14.326c-10.611-5.073-18.088-11.788-22.424-20.138
		c-4.336-8.352-6.504-22.446-6.504-42.284c0-17.994-0.229-28.744-0.691-32.25c-0.646-6.182-2.471-10.496-5.469-12.941
		c-2.998-2.446-8.88-3.668-17.647-3.668h-4.29v-21.73h7.752c9.042,0,15.594,0.738,19.654,2.214
		c5.903,2.03,10.792,5.446,14.668,10.244s6.392,10.84,7.544,18.13c1.153,7.29,1.777,19.24,1.87,35.848
		c0.092,16.608,0.876,28.074,2.354,34.395c1.477,6.322,4.452,11.328,8.926,15.018C369.2,242.528,374.988,244.466,382.092,244.65z"/>
</g>
</svg>
