<?xml version="1.0" encoding="utf-8"?>
<!-- Generator: Adobe Illustrator 15.0.2, SVG Export Plug-In . SVG Version: 6.00 Build 0)  -->
<!DOCTYPE svg PUBLIC "-//W3C//DTD SVG 1.1//EN" "http://www.w3.org/Graphics/SVG/1.1/DTD/svg11.dtd">
<svg version="1.1" id="Calque_1" xmlns="http://www.w3.org/2000/svg" xmlns:xlink="http://www.w3.org/1999/xlink" x="0px" y="0px"
	 width="512px" height="512px" viewBox="0 0 512 512" enable-background="new 0 0 512 512" xml:space="preserve">
<g>
	<g>
		<polygon fill="#999999" points="74.032,135.843 94.955,151.042 86.958,126.444 107.881,111.231 82.029,111.231 74.032,86.633 
			66.034,111.231 40.167,111.231 61.091,126.444 53.108,151.042 		"/>
	</g>
	<g>
		<polygon fill="#999999" points="74.032,272.999 94.955,288.211 86.958,263.614 107.881,248.4 82.029,248.4 74.032,223.803 
			66.034,248.4 40.167,248.4 61.091,263.614 53.108,288.211 		"/>
	</g>
	<g>
		<polygon fill="#999999" points="74.032,410.168 94.955,425.367 86.958,400.77 107.881,385.57 82.029,385.57 74.032,360.973 
			66.034,385.57 40.167,385.57 61.091,400.77 53.108,425.367 		"/>
	</g>
	<g>
		<rect x="148.548" y="248.445" fill="#999999" width="323.285" height="15.11"/>
	</g>
	<g>
		<rect x="148.548" y="111.29" fill="#999999" width="323.285" height="15.11"/>
	</g>
	<g>
		<rect x="148.548" y="385.615" fill="#999999" width="323.285" height="15.109"/>
	</g>
</g>
<path fill="#999999" d="M497,15v482H15V15H497 M512,0H0v512h512V0L512,0z"/>
</svg>
